# xmcd
#
# Track frame offsets:
#	150
#	32208
#	50418
#	65039
#	80746
#	90985
#	105029
#	125113
#	137096
#	159639
#	173475
#	191201
#	202605
#	219659
#	245921
#	261654
#	277731
#	290992
#	300947
#	317646
#
# Disc length: 4533 seconds
#
# Revision: 2
# Processed by: cddbd v1.5.1PL0 Copyright (c) Steve Scherf et al.
# Submitted via: audiograbber 1.81.02
#
DISCID=2811b314
DTITLE=Various Artist - Blues Anthology
DYEAR=2002
DGENRE=Blues
TTITLE0=Mike Bloomfield - Between The Hard Place And The Ground
TTITLE1=Charles Brown - Driftin Blues
TTITLE2=Ray Charles - Baby Wont You Please Come Home
TTITLE3=Fred McDowell - Good Morning Little School Girl
TTITLE4=Bo Diddley - Mess Around
TTITLE5=Dr. John - Loser For You Baby
TTITLE6=Buddy Guy and Junior Wells - Everyday I Have The Blues
TTITLE7=Lightnin' Hopkins - Lonesome Dog Blues
TTITLE8=B.B. King - The Thrill Is Gone
TTITLE9=Leadbelly - Where Did You Sleep Last Night
TTITLE10=John Mayall - Mama Talk To Your Daughter
TTITLE11=Buddy Guy and Junior Wells - Messin With The Kid
TTITLE12=Muddy Waters - Got My Mojo Working
TTITLE13=Big Mama Thorton - Little Red Rooster
TTITLE14=Mike Bloomfield - Dont Lie To Me
TTITLE15=B.B. King - Its My Own Fault
TTITLE16=Canned Heat - Going Up The Country
TTITLE17=Buddy Guy - First Time I Met The Blues
TTITLE18=Memphis Sam - Cold Blooded Woman
TTITLE19=John Mayall - Baby What You Want Me To Do
EXTD=YEAR: 2002
EXTT0=
EXTT1=
EXTT2=
EXTT3=
EXTT4=
EXTT5=
EXTT6=
EXTT7=
EXTT8=
EXTT9=
EXTT10=
EXTT11=
EXTT12=
EXTT13=
EXTT14=
EXTT15=
EXTT16=
EXTT17=
EXTT18=
EXTT19=
PLAYORDER=
